<?xml version="1.0" encoding="utf-8"?>
<!-- Generator: Adobe Illustrator 27.4.1, SVG Export Plug-In . SVG Version: 6.00 Build 0)  -->
<svg version="1.1" id="레이어_1" xmlns="http://www.w3.org/2000/svg" xmlns:xlink="http://www.w3.org/1999/xlink" x="0px"
	 y="0px" viewBox="0 0 352 22.05" style="enable-background:new 0 0 352 22.05;" xml:space="preserve">
<style type="text/css">
	.st0{fill:#212121;}
</style>
<g>
	<g>
		<path class="st0" d="M181.92,9.85c-0.4-3.91-2.46-6.73-5.93-8.48c-2.91-1.47-6.01-1.71-9.16-0.92c-3.57,0.9-6.23,2.97-7.71,6.4
			c-0.66,1.54-0.86,3.17-0.78,4.84c0.08,1.72,0.52,3.33,1.39,4.81c1.69,2.85,4.24,4.5,7.43,5.24c0.58,0.14,1.18,0.21,1.77,0.32
			c0.8,0,1.6,0,2.4,0c0.45-0.08,0.9-0.15,1.35-0.23c2.56-0.48,4.79-1.59,6.56-3.53C181.45,15.89,182.25,13.03,181.92,9.85z
			 M178.54,15.33c-1.49,3.36-4.05,5.3-7.75,5.59c-5.06,0.39-9.01-3.3-9.67-7.98c-0.09-0.64-0.13-1.28-0.2-1.92
			c0.05-2.43,0.66-4.68,2.23-6.58c1.66-2.01,3.79-3.13,6.41-3.29c2.77-0.17,5.16,0.72,7.1,2.7c1.58,1.61,2.41,3.6,2.64,5.84
			C179.49,11.63,179.34,13.54,178.54,15.33z"/>
		<path class="st0" d="M201.25,0c-0.09,0.05-0.17,0.12-0.26,0.13c-1.25,0.16-2.5,0.42-3.76,0.44c-3.3,0.06-6.6,0.02-9.91,0.02
			c-0.16,0-0.31,0-0.5,0c0.01,0.15,0.01,0.26,0.02,0.4c0.21,0,0.4-0.01,0.58,0c1.19,0.04,1.97,0.85,1.97,2.02
			c0,5.55,0,11.09,0,16.64c0,0.87-0.4,1.51-1.19,1.83c-0.42,0.17-0.89,0.19-1.36,0.28c0,0.06,0,0.18,0,0.29c2.49,0,4.95,0,7.42,0
			c0.15-0.43-0.14-0.37-0.37-0.37c-1.37-0.01-2.2-0.84-2.2-2.2c0-2.36,0-4.73,0-7.09c0-0.15,0-0.31,0-0.47
			c0.1-0.01,0.15-0.03,0.2-0.03c2.02,0,4.04-0.01,6.06,0c0.8,0,1.31,0.54,1.35,1.36c0.01,0.2,0,0.39,0,0.59c0.16,0,0.29,0,0.41,0
			c0-1.69,0-3.36,0-5.05c-0.14,0.01-0.26,0.02-0.41,0.02c0,0.21,0.01,0.41,0,0.61c-0.04,0.78-0.52,1.34-1.27,1.34
			c-2.07,0.02-4.15,0-6.22,0c-0.02,0-0.05-0.02-0.09-0.04c0-2.98,0-5.97,0-8.99c0.16,0,0.29,0,0.42,0c2.34,0,4.68,0,7.01,0
			c1.11,0,1.83,0.7,1.85,1.82c0,0.17,0,0.33,0,0.52c0.17-0.01,0.29-0.02,0.44-0.04c0-0.67-0.01-1.31,0-1.96
			c0.01-0.7,0.03-1.4,0.04-2.09C201.41,0,201.33,0,201.25,0z"/>
	</g>
	<g>
		<path class="st0" d="M329.41,0c0.01,0.15,0.03,0.31,0.04,0.46c0.09,1.13,0.25,2.25,0.26,3.38c0.03,5.14,0.01,10.29,0.01,15.43
			c0,1.09-0.76,1.87-1.86,1.89c-0.2,0-0.41,0-0.61,0c-0.09,0.28-0.04,0.39,0.24,0.39c2.02-0.01,4.05-0.01,6.07,0
			c0.31,0,0.34-0.13,0.23-0.39c-0.23,0-0.45,0.01-0.67,0c-1.03-0.05-1.78-0.83-1.79-1.85c0-0.6-0.03-1.21-0.04-1.81
			c0-4.07,0-8.15,0-12.22c0-0.1,0.02-0.21,0.04-0.38c0.77,0.72,1.48,1.39,2.19,2.06c1.32,1.26,2.64,2.52,3.97,3.78
			c2.17,2.05,4.34,4.1,6.51,6.15c1.36,1.28,2.72,2.56,4.07,3.84c0.44,0.42,0.86,0.87,1.29,1.31c0.15,0,0.31,0,0.46,0
			c-0.1-0.92-0.29-1.83-0.3-2.75c-0.04-5.48-0.04-10.96-0.05-16.43c0-1.09,0.8-1.89,1.9-1.9c0.2,0,0.41,0.02,0.61,0.04
			c0-0.15,0-0.31,0-0.46c-0.15,0.01-0.31,0.04-0.46,0.04c-1.97,0-3.95,0-5.92,0c-0.09,0-0.17,0.02-0.26,0.03c0,0.12,0,0.22,0,0.36
			c0.25,0,0.48-0.01,0.71,0c1.03,0.04,1.83,0.85,1.83,1.87c0,4.64,0,9.28,0,13.92c0,0.09-0.02,0.18-0.03,0.31
			c-0.93-0.87-1.82-1.71-2.71-2.55c-1.22-1.15-2.43-2.31-3.64-3.45c-1.96-1.84-3.92-3.68-5.88-5.53c-1.43-1.35-2.87-2.69-4.3-4.05
			c-0.52-0.49-1.02-1-1.53-1.5C329.67,0,329.54,0,329.41,0z"/>
		<path class="st0" d="M323.96,10.22c-0.19-2.91-1.36-5.33-3.54-7.25c-2.27-2-4.99-2.86-7.98-2.93c-2.25-0.05-4.4,0.39-6.39,1.48
			c-2.22,1.21-3.88,2.95-4.86,5.29c-0.7,1.66-0.89,3.39-0.76,5.18c0.18,2.59,1.21,4.8,3.03,6.62c1.66,1.66,3.7,2.67,6,3.13
			c0.5,0.1,1,0.18,1.5,0.26c0.83,0,1.65,0,2.48,0c0.56-0.1,1.12-0.19,1.68-0.31c2.76-0.6,5.08-1.95,6.8-4.22
			C323.53,15.34,324.13,12.89,323.96,10.22z M320.4,15.63c-1.52,3.16-4.03,4.97-7.56,5.25c-2.67,0.21-5.01-0.63-6.93-2.49
			c-1.57-1.51-2.46-3.4-2.76-5.56c-0.09-0.61-0.11-1.23-0.16-1.84c0.03-2.49,0.68-4.76,2.31-6.68c1.64-1.93,3.73-2.99,6.26-3.15
			c2.44-0.16,4.62,0.52,6.49,2.12c1.66,1.42,2.68,3.22,3.08,5.34C321.59,11.02,321.47,13.4,320.4,15.63z"/>
		<path class="st0" d="M257.35,9.99c-0.37-4.01-2.45-6.88-6.01-8.64c-3.09-1.53-6.37-1.7-9.66-0.72c-3.1,0.93-5.46,2.81-6.88,5.77
			c-0.76,1.58-1.03,3.27-0.98,5.02c0.04,1.76,0.45,3.42,1.33,4.94c1.69,2.93,4.27,4.62,7.53,5.36c0.55,0.13,1.12,0.21,1.68,0.31
			c0.83,0,1.65,0,2.48,0c0.04-0.03,0.07-0.07,0.12-0.07c0.63-0.11,1.28-0.16,1.9-0.32c3.05-0.76,5.5-2.38,7.13-5.12
			C257.18,14.5,257.56,12.3,257.35,9.99z M252.83,17.33c-1.66,2.19-3.87,3.41-6.63,3.58c-2.77,0.17-5.15-0.71-7.07-2.7
			c-1.69-1.74-2.51-3.89-2.67-6.29c-0.11-1.56,0.05-3.08,0.54-4.56c1.2-3.55,4.31-5.93,8.03-6.18c4.87-0.32,8.75,3.13,9.53,7.56
			c0.13,0.76,0.19,1.53,0.28,2.29C254.77,13.33,254.24,15.47,252.83,17.33z"/>
		<path class="st0" d="M294.36,0.25c-0.1,0.05-0.19,0.13-0.29,0.14c-1.14,0.15-2.29,0.4-3.44,0.42c-3.25,0.06-6.5,0.02-9.75,0.02
			c-0.15,0-0.3,0-0.44,0c-0.14,0.4,0.09,0.39,0.33,0.39c1.4,0.01,2.14,0.76,2.14,2.15c0,0.48,0,0.95,0,1.43c0,4.86,0,9.72,0,14.58
			c0,1.18-0.84,2.02-2.02,2.03c-0.15,0-0.3,0-0.45,0c-0.13,0.38,0.08,0.39,0.32,0.39c4.5,0,9,0,13.5,0c0.27,0,0.39-0.09,0.47-0.33
			c0.37-1,0.76-1.99,1.14-2.99c0.21-0.56,0.42-1.11,0.64-1.68c-0.39-0.03-0.38-0.03-0.51,0.25c-0.43,0.9-0.92,1.76-1.68,2.43
			c-0.96,0.85-2.14,1.17-3.39,1.19c-1.8,0.03-3.61,0.01-5.41,0.01c-0.1,0-0.2-0.01-0.31-0.02c0-2.94,0-5.85,0-8.8
			c2.03,0,4.02-0.01,6.02,0.01c0.63,0.01,1.08,0.43,1.21,1.05c0.06,0.27,0.05,0.56,0.07,0.85c0.13,0,0.25,0,0.37,0
			c0-1.65,0-3.28,0-4.91c-0.14,0-0.25,0-0.39,0c0,0.12,0,0.22,0,0.32c-0.01,1.11-0.5,1.59-1.61,1.59c-1.75,0-3.51,0-5.26,0
			c-0.14,0-0.28,0-0.42,0c0-2.96,0-5.87,0-8.79c0.07-0.01,0.12-0.03,0.16-0.03c2.39,0,4.77-0.01,7.16,0
			c0.83,0.01,1.53,0.74,1.56,1.57c0.01,0.22,0,0.43,0,0.67c0.16,0,0.28,0,0.43,0c0-1.33,0-2.64,0-3.96
			C294.47,0.25,294.42,0.25,294.36,0.25z"/>
		<path class="st0" d="M269.29,22c0.53-0.15,1.08-0.27,1.6-0.46c2.44-0.89,3.94-3.17,3.69-5.62c-0.14-1.36-0.59-2.58-1.73-3.45
			c-1.37-1.05-2.73-2.1-4.09-3.16c-1.07-0.84-2.17-1.65-3.18-2.56c-1.23-1.11-1.55-3.53,0.44-4.82c1.14-0.74,2.38-0.91,3.69-0.75
			c0.97,0.12,1.87,0.38,2.5,1.2c0.41,0.53,0.54,1.15,0.59,1.81c0.15,0,0.29,0,0.38,0c0-1.29,0-2.56,0-3.88
			c-0.52,0-0.99,0.03-1.45-0.01c-1.1-0.07-2.2-0.25-3.3-0.25c-1.82,0-3.38,0.68-4.6,2.08c-1.66,1.9-1.42,5.41,0.94,7.12
			c2.23,1.61,4.39,3.32,6.55,5.03c1.97,1.55,1.78,4.59-0.37,5.86c-1.53,0.91-3.19,1-4.88,0.51c-1.19-0.34-2.06-1.09-2.57-2.23
			c-0.34-0.75-0.41-1.56-0.34-2.39c-0.23,0-0.45-0.12-0.53,0.22c-0.27,1.05-0.37,2.12-0.39,3.21c-0.01,0.72,0.29,1.16,0.93,1.46
			c1.04,0.49,2.12,0.78,3.25,0.94c0.29,0.04,0.57,0.1,0.85,0.15C267.94,22,268.61,22,269.29,22z"/>
		<path class="st0" d="M222.21,0.06c-0.03,0.27,0.09,0.37,0.36,0.35c0.63-0.04,1.23,0.1,1.75,0.47c0.39,0.27,0.61,0.61,0.6,1.13
			c-0.01,5.01,0,10.03-0.02,15.04c0,0.44-0.1,0.91-0.27,1.31c-0.69,1.62-1.91,2.68-3.57,3.25c-0.18,0.06-0.37,0.09-0.24,0.39
			c0.15,0,0.31,0.01,0.48,0c1.35-0.09,2.6-0.49,3.71-1.27c1.45-1.01,2.21-2.35,2.19-4.17c-0.04-4.81-0.01-9.62-0.02-14.42
			c0-0.54,0.17-0.98,0.64-1.24c0.34-0.19,0.72-0.34,1.1-0.44c0.3-0.08,0.63-0.06,0.94-0.08c0.03-0.12,0.05-0.22,0.08-0.32
			C227.36,0.06,224.79,0.06,222.21,0.06z"/>
	</g>
	<g>
		<path class="st0" d="M116.98,1.01c0,0,0,2.01,0,3.01c-0.14,0-0.26,0-0.43,0c0-0.19,0.01-0.38,0-0.58
			c-0.03-1.01-0.74-1.76-1.75-1.77c-2.1-0.02-4.2-0.01-6.29,0c-0.04,0-0.07,0.01-0.15,0.03c0,0.15,0,0.31,0,0.46
			c0,5.81,0.02,11.61-0.02,17.42c-0.01,1.04,0.95,2.13,2.08,2.08c0.13-0.01,0.26,0,0.39,0c0.07,0.24,0.09,0.4-0.21,0.4
			c-2.36,0-4.72,0-7.11,0c-0.01-0.13-0.02-0.24-0.03-0.4c0.21,0,0.39,0.01,0.57,0c1.06-0.04,1.96-0.93,1.96-1.99
			c0.01-5.91,0-11.82,0-17.73c0-0.08-0.01-0.15-0.01-0.27c-0.2,0-0.38,0-0.56,0c-1.87,0-3.75,0.02-5.62-0.01
			c-1.32-0.02-2.12,0.89-2,2c0.01,0.12-0.01,0.23-0.02,0.37c-0.13,0.01-0.25,0.01-0.42,0.02c0-1.36,0-2.7,0-4.04
			c0.08,0,0.16,0,0.24,0c0.08,0.04,0.16,0.09,0.24,0.1c1.1,0.15,2.21,0.41,3.32,0.43c3.74,0.05,7.49,0.03,11.23,0.01
			c0.89,0,1.79-0.07,2.67-0.17c0.55-0.06,1.08-0.25,1.62-0.38c0.11,0,0.21,0,0.32,0c0,0.18,0,0.58,0,0.58"/>
		<path class="st0" d="M13.51,10.74c-0.72-0.31-1.48-0.5-2.18-0.74c0.33-0.16,0.73-0.32,1.11-0.53c2.69-1.48,3.33-4.98,1.32-7.3
			c-0.89-1.02-2.09-1.52-3.37-1.84C9.85,0.2,9.32,0.11,8.79,0C5.86,0,2.93,0,0,0c0,0.11,0,0.21,0,0.32C0.88,0.29,1.74,0.4,2.31,1.17
			c0.23,0.31,0.44,0.73,0.45,1.09C2.78,8.1,2.77,13.94,2.77,19.78c0,0.97-0.99,1.88-2.06,1.91c-0.24,0.01-0.47,0-0.71,0
			c0,0.11,0,0.21,0,0.32c0.17,0.01,0.34,0.04,0.51,0.04c2.9,0,5.8,0.01,8.7,0c1.55-0.01,3.07-0.25,4.49-0.9
			c1.5-0.69,2.66-1.72,3.14-3.35C17.72,14.86,16.33,11.94,13.51,10.74z M13.17,19.3c-0.79,0.83-1.8,1.33-2.92,1.43
			c-1.68,0.14-3.36,0.17-5.09,0.25c0-6.71,0-13.3,0-19.93c1.58,0,3.17-0.17,4.67,0.49c1.53,0.67,2.26,1.92,2.36,3.54
			c0.07,1.05-0.05,2.08-0.7,2.97c-0.79,1.1-1.92,1.61-3.2,1.84c-0.57,0.1-1.15,0.13-1.72,0.21c-0.09,0.01-0.18,0.1-0.27,0.15
			c0.1,0.05,0.19,0.15,0.29,0.16c1.4,0.06,2.78,0.17,4.12,0.61c1.37,0.45,2.51,1.21,3.18,2.53C14.61,14.95,14.7,17.68,13.17,19.3z"
			/>
		<path class="st0" d="M81.48,22.05c0.07-0.03,0.13-0.06,0.2-0.08c0.72-0.15,1.47-0.24,2.17-0.46c2.11-0.66,3.69-1.96,4.61-4
			c0.5-1.12,0.68-2.3,0.69-3.51c0.01-3.96,0-7.92,0-11.88c0-1.01,0.7-1.71,1.72-1.72c0.17,0,0.34,0,0.52,0c0-0.15,0-0.26,0-0.37
			c-2.07,0-4.12,0-6.16,0C85.18,0.4,85.18,0.4,85.59,0.4c1.25,0.01,1.85,0.6,1.85,1.85c0,3.91,0,7.81,0,11.72
			c0,0.33-0.01,0.66-0.04,0.99c-0.29,2.62-1.56,4.53-4.05,5.54c-1.23,0.5-2.52,0.6-3.82,0.51c-1.78-0.11-3.29-0.8-4.42-2.23
			c-1.18-1.5-1.56-3.25-1.57-5.09c-0.03-3.85-0.01-7.71-0.01-11.56c0-1.02,0.69-1.71,1.71-1.73c0.17,0,0.34,0,0.5,0
			C75.86,0.11,75.78,0,75.5,0c-2.08,0.01-4.16,0.01-6.24,0c-0.29,0-0.34,0.11-0.25,0.38c0.07,0.01,0.13,0.02,0.19,0.02
			c1.5,0.05,2.03,0.6,2.03,2.1c0,4-0.01,8,0,12c0,1.11,0.24,2.18,0.73,3.18c1.17,2.37,3.16,3.61,5.68,4.13
			c0.43,0.09,0.86,0.16,1.29,0.24C79.79,22.05,80.63,22.05,81.48,22.05z"/>
		<path class="st0" d="M36.27,0c-0.1,0.05-0.2,0.12-0.31,0.14c-1.2,0.16-2.39,0.41-3.6,0.44c-3.31,0.06-6.62,0.02-9.93,0.02
			c-0.15,0-0.31,0-0.47,0c0,0.15,0,0.25,0,0.4c0.16,0,0.3,0,0.44,0c1.29,0.01,2.11,0.8,2.11,2.09c0.01,5.47,0.01,10.95,0,16.42
			c0,1.32-0.84,2.14-2.15,2.15c-0.13,0-0.26,0-0.42,0c0.01,0.15,0.02,0.26,0.02,0.37c0.07,0.01,0.11,0.02,0.15,0.02
			c4.7,0,9.39,0,14.09,0.01c0.23,0,0.31-0.11,0.38-0.3c0.46-1.2,0.93-2.41,1.39-3.61c0.15-0.4,0.29-0.8,0.44-1.19
			c-0.04-0.03-0.08-0.07-0.12-0.1c-0.12,0.09-0.27,0.17-0.35,0.29c-0.12,0.17-0.2,0.37-0.29,0.56c-1.06,2.19-2.82,3.24-5.25,3.21
			c-1.71-0.02-3.43,0-5.14,0c-0.14,0-0.28,0-0.43,0c0-3.03,0-6.01,0-8.98c0.06-0.02,0.09-0.04,0.13-0.04c2.02,0,4.04-0.02,6.05,0
			c0.69,0.01,1.16,0.48,1.27,1.18c0.04,0.25,0.05,0.51,0.07,0.77c0.14,0,0.26,0,0.38,0c0-1.69,0-3.36,0-5.05
			c-0.15,0.01-0.27,0.02-0.4,0.03C34.34,8.92,34.33,9,34.33,9.08c-0.03,1.22-0.5,1.68-1.72,1.68c-1.78,0-3.56,0-5.34,0
			c-0.14,0-0.28,0-0.43,0c0-3.03,0-6,0-9.02c0.16,0,0.3,0,0.44,0c2.3,0,4.59,0,6.89,0c1.07,0,1.79,0.71,1.79,1.78
			c0,0.18,0,0.36,0,0.56c0.17-0.01,0.29-0.02,0.44-0.04c0-0.67-0.01-1.31,0-1.95C36.4,1.39,36.41,0.7,36.43,0
			C36.37,0,36.32,0,36.27,0z"/>
		<path class="st0" d="M65.23,21.29c-0.92-0.44-1.35-1.31-1.74-2.18c-2.84-6.27-5.67-12.55-8.5-18.82c-0.1-0.22-0.22-0.36-0.44-0.26
			c-0.18,0.54-0.31,1.07-0.54,1.56c-1.21,2.68-2.44,5.35-3.67,8.02c-1.52,3.29-3.05,6.58-4.6,9.87c-0.61,1.29-1.52,2.18-3.06,2.19
			c-0.02,0-0.04,0.02-0.07,0.04c0,0.1,0,0.2,0,0.3c0.05,0.01,0.09,0.03,0.13,0.03c2.16,0,4.31,0,6.47,0.01
			c0.3,0,0.28-0.16,0.22-0.35c-1.48-0.24-1.99-1.03-1.47-2.26c0.61-1.45,1.24-2.88,1.83-4.34c0.1-0.25,0.21-0.33,0.48-0.33
			c2.35,0.01,4.71,0.01,7.07,0.01c0.53,0,1.06,0,1.59,0c0.13,0.32,0.26,0.62,0.39,0.92c0.53,1.29,1.07,2.58,1.58,3.88
			c0.33,0.85,0.07,1.56-0.7,1.93c-0.24,0.12-0.53,0.13-0.82,0.19c0,0.09,0,0.2,0,0.31c2.46,0,4.9,0,7.35,0c0-0.13,0-0.23,0-0.24
			C66.19,21.61,65.68,21.51,65.23,21.29z M50.4,13.66c1.36-3.21,2.7-6.39,4.09-9.69c1.35,3.28,2.65,6.46,3.98,9.69
			C55.76,13.66,53.11,13.66,50.4,13.66z"/>
		<g>
			<path class="st0" d="M129.35,2.27l-2.65-0.09c-0.29-0.48-0.72-0.91-1.29-1.29c-0.57-0.38-1.19-0.57-1.86-0.57h-0.44V0h7.75v0.32
				h-0.41c-0.46,0-0.81,0.22-1.06,0.65C129.15,1.39,129.14,1.83,129.35,2.27z M128.15,0.03l6.17,11.5l-1.35,1.1l-7.53-12.6H128.15z
				 M132.78,19.75v2.3h-2.49v-0.32c0.25,0,0.39,0,0.41,0c0.55,0,1.01-0.19,1.4-0.58c0.39-0.39,0.59-0.86,0.61-1.4H132.78z
				 M134.77,11.91v10.14h-2.05V11.91H134.77z M140.37,0.03h1.92l-7.75,12.54l-1.13-0.35L140.37,0.03z M134.67,19.75h0.09
				c0,0.55,0.2,1.01,0.6,1.4c0.4,0.39,0.87,0.58,1.42,0.58h0.38v0.32h-2.49V19.75z M139.08,2.27c0.19-0.29,0.24-0.59,0.16-0.9
				c-0.08-0.3-0.24-0.56-0.47-0.76c-0.23-0.2-0.49-0.3-0.79-0.3h-0.38V0h6.99v0.32h-0.44c-0.65,0-1.26,0.19-1.83,0.57
				c-0.57,0.38-1.02,0.81-1.35,1.29L139.08,2.27z"/>
		</g>
	</g>
</g>
</svg>
